<svg xmlns="http://www.w3.org/2000/svg" viewBox="-4228.057393600597 -2992.9837954790196 8456.114787201193 7673.736366224162"><polygon fill="#ffffff" points="-624.0 249.4153162899184 -496.0 27.712812921102 63.99999999999994 997.6612651596733 -192.00000000000006 997.6612651596733 -320.00000000000017 775.9587617908571 -448.00000000000034 997.6612651596732 -576.0000000000003 997.6612651596732 -640.0000000000003 886.8100134752651 -448.0000000000001 554.2562584220408"/> <polygon fill="#ffffff" points="-528.0000000000001 -415.6921938165305 -272.0 -415.69219381653056 -832.0 554.2562584220408 -960.0 332.55375505322456 -832.0000000000001 110.85125168440817 -1088.0 110.85125168440794 -1152.0 -1.7053025658242404e-13 -1088.0 -110.85125168440834 -704.0000000000001 -110.85125168440811"/> <polygon fill="#ffffff" points="95.99999999999983 -665.1075101064489 223.99999999999991 -443.4050067376326 -896.0000000000001 -443.40500673763245 -768.0000000000001 -665.1075101064487 -512.0000000000001 -665.1075101064489 -640.0 -886.8100134752652 -576.0 -997.6612651596733 -448.0 -997.6612651596733 -256.0000000000001 -665.1075101064489"/> <polygon fill="#ffffff" points="624.0 -249.41531628991848 496.0 -27.71281292110206 -64.00000000000007 -997.6612651596733 191.99999999999994 -997.6612651596733 320.00000000000006 -775.9587617908571 448.0000000000002 -997.6612651596732 576.0000000000002 -997.6612651596733 640.0000000000002 -886.8100134752652 448.00000000000006 -554.2562584220408"/> <polygon fill="#ffffff" points="528.0000000000002 415.6921938165302 272.00000000000017 415.69219381653045 831.9999999999998 -554.2562584220411 959.9999999999999 -332.5537550532249 832.0000000000001 -110.85125168440845 1088.0 -110.8512516844084 1152.0 -2.8421709430404007e-13 1088.0 110.85125168440794 704.0000000000001 110.85125168440788"/> <polygon fill="#ffffff" points="-96.0 665.1075101064489 -224.00000000000009 443.40500673763256 896.0 443.4050067376328 768.0 665.107510106449 511.9999999999999 665.1075101064491 639.9999999999997 886.8100134752656 575.9999999999997 997.6612651596736 447.99999999999966 997.6612651596737 255.9999999999999 665.107510106449"/><g transform="translate(-2232.73486328125 2660.4300404257956)"><path d="M 892.0 -1331.0 L 1047.0 -1331.0 L 1047.0 0.0 L 899.0 0.0 L 155.0 -1055.0 L 155.0 0.0 L 0.0 0.0 L 0.0 -1331.0 L 148.0 -1331.0 L 892.0 -275.0" fill="white"/><path d="M 1366.783203125 -1144.0 L 1366.783203125 -1289.0 C 1326.783203125 -1300.0 1248.783203125 -1300.0 1208.783203125 -1289.0 L 1208.783203125 -1144.0 C 1248.783203125 -1133.0 1326.783203125 -1133.0 1366.783203125 -1144.0 M 1366.783203125 0.0 L 1366.783203125 -935.0 L 1208.783203125 -953.0 L 1208.783203125 0.0" fill="white"/><path d="M 2328.6142578125 -935.0 L 1991.6142578125 -480.0 L 2326.6142578125 0.0 L 2133.6142578125 0.0 L 1903.6142578125 -370.0 L 1675.6142578125 0.0 L 1492.6142578125 0.0 L 1826.6142578125 -467.0 L 1508.6142578125 -935.0 L 1702.6142578125 -935.0 L 1910.6142578125 -574.0 L 2137.6142578125 -935.0" fill="white"/><path d="M 3029.4931640625 -1356.0 C 3362.4931640625 -1356.0 3640.4931640625 -1113.0 3640.4931640625 -665.0 C 3640.4931640625 -217.0 3362.4931640625 25.0 3029.4931640625 25.0 C 2696.4931640625 25.0 2418.4931640625 -217.0 2418.4931640625 -665.0 C 2418.4931640625 -1113.0 2696.4931640625 -1356.0 3029.4931640625 -1356.0 M 3029.4931640625 -111.0 C 3295.4931640625 -111.0 3464.4931640625 -332.0 3464.4931640625 -665.0 C 3464.4931640625 -998.0 3295.4931640625 -1219.0 3029.4931640625 -1219.0 C 2763.4931640625 -1219.0 2594.4931640625 -998.0 2594.4931640625 -665.0 C 2594.4931640625 -332.0 2763.4931640625 -111.0 3029.4931640625 -111.0" fill="white"/><path d="M 4012.4697265625 25.0 C 3881.4697265625 25.0 3739.4697265625 -9.0 3658.4697265625 -88.0 L 3730.4697265625 -203.0 C 3815.4697265625 -147.0 3917.4697265625 -119.0 4018.4697265625 -119.0 C 4171.4697265625 -119.0 4289.4697265625 -185.0 4289.4697265625 -325.0 C 4289.4697265625 -447.0 4201.4697265625 -519.0 3998.4697265625 -638.0 C 3843.4697265625 -728.0 3723.4697265625 -823.0 3723.4697265625 -1012.0 C 3723.4697265625 -1228.0 3897.4697265625 -1356.0 4147.4697265625 -1356.0 C 4251.4697265625 -1356.0 4343.4697265625 -1336.0 4426.4697265625 -1287.0 L 4372.4697265625 -1167.0 C 4307.4697265625 -1201.0 4212.4697265625 -1212.0 4135.4697265625 -1212.0 C 3979.4697265625 -1212.0 3892.4697265625 -1147.0 3892.4697265625 -1034.0 C 3892.4697265625 -923.0 3971.4697265625 -840.0 4100.4697265625 -764.0 C 4339.4697265625 -624.0 4465.4697265625 -531.0 4465.4697265625 -340.0 C 4465.4697265625 -99.0 4262.4697265625 25.0 4012.4697265625 25.0" fill="white"/></g></svg>